name ./resultDataOpenSim/trcMotMarkerGrf/sub10/grf-04-01.mot
datacolumns 19
datarows 22
range 1.47600000 1.56000000
endheader

                time	     ground_force_vx	     ground_force_vy	     ground_force_vz	     ground_force_px	     ground_force_py	     ground_force_pz	   l_ground_force_vx	   l_ground_force_vy	   l_ground_force_vz	   l_ground_force_px	   l_ground_force_py	   l_ground_force_pz	     ground_torque_x	     ground_torque_y	     ground_torque_z	   l_ground_torque_x	   l_ground_torque_y	   l_ground_torque_z	
          1.47600000	        -22.80494696	        387.15879808	        -28.95125341	          0.91191482	          0.00000000	          0.05981945	          0.00000000	          0.00000000	          0.00000000	          0.00000000	          0.00000000	          0.00000000	          0.00000000	          2.43610721	          0.00000000	          0.00000000	          0.00000000	          0.00000000	
          1.48000000	        -22.80775102	        381.76856288	        -28.72791863	          0.91355252	          0.00000000	          0.05971239	          0.00000000	          0.00000000	          0.00000000	          0.00000000	          0.00000000	          0.00000000	          0.00000000	          2.48636874	          0.00000000	          0.00000000	          0.00000000	          0.00000000	
          1.48400000	        -22.49133743	        376.93872047	        -27.94152693	          0.91514270	          0.00000000	          0.05954765	          0.00000000	          0.00000000	          0.00000000	          0.00000000	          0.00000000	          0.00000000	          0.00000000	          2.52118378	          0.00000000	          0.00000000	          0.00000000	          0.00000000	
          1.48800000	        -21.63375120	        372.71362024	        -26.60006401	          0.91664856	          0.00000000	          0.05931576	          0.00000000	          0.00000000	          0.00000000	          0.00000000	          0.00000000	          0.00000000	          0.00000000	          2.54164763	          0.00000000	          0.00000000	          0.00000000	          0.00000000	
          1.49200000	        -20.20288519	        369.11984097	        -24.82279575	          0.91806320	          0.00000000	          0.05901377	          0.00000000	          0.00000000	          0.00000000	          0.00000000	          0.00000000	          0.00000000	          0.00000000	          2.55298249	          0.00000000	          0.00000000	          0.00000000	          0.00000000	
          1.49600000	        -18.34334489	        366.16897845	        -22.82557859	          0.91938541	          0.00000000	          0.05864955	          0.00000000	          0.00000000	          0.00000000	          0.00000000	          0.00000000	          0.00000000	          0.00000000	          2.56179076	          0.00000000	          0.00000000	          0.00000000	          0.00000000	
          1.50000000	        -16.32577210	        363.88146548	        -20.87288265	          0.92061731	          0.00000000	          0.05823477	          0.00000000	          0.00000000	          0.00000000	          0.00000000	          0.00000000	          0.00000000	          0.00000000	          2.57441581	          0.00000000	          0.00000000	          0.00000000	          0.00000000	
          1.50400000	        -14.46859575	        362.30088901	        -19.20861078	          0.92179655	          0.00000000	          0.05777633	          0.00000000	          0.00000000	          0.00000000	          0.00000000	          0.00000000	          0.00000000	          0.00000000	          2.59688092	          0.00000000	          0.00000000	          0.00000000	          0.00000000	
          1.50800000	        -13.04130684	        361.48422466	        -17.99612057	          0.92296757	          0.00000000	          0.05728588	          0.00000000	          0.00000000	          0.00000000	          0.00000000	          0.00000000	          0.00000000	          0.00000000	          2.63518112	          0.00000000	          0.00000000	          0.00000000	          0.00000000	
          1.51200000	        -12.18015349	        361.47017290	        -17.28725161	          0.92415691	          0.00000000	          0.05677908	          0.00000000	          0.00000000	          0.00000000	          0.00000000	          0.00000000	          0.00000000	          0.00000000	          2.69444817	          0.00000000	          0.00000000	          0.00000000	          0.00000000	
          1.51600000	        -11.84862339	        362.25054970	        -17.02445407	          0.92536764	          0.00000000	          0.05627406	          0.00000000	          0.00000000	          0.00000000	          0.00000000	          0.00000000	          0.00000000	          0.00000000	          2.77685305	          0.00000000	          0.00000000	          0.00000000	          0.00000000	
          1.52000000	        -11.84941357	        363.77413037	        -17.07243884	          0.92655496	          0.00000000	          0.05579187	          0.00000000	          0.00000000	          0.00000000	          0.00000000	          0.00000000	          0.00000000	          0.00000000	          2.87969363	          0.00000000	          0.00000000	          0.00000000	          0.00000000	
          1.52400000	        -11.87854141	        365.97261467	        -17.26285137	          0.92767745	          0.00000000	          0.05535158	          0.00000000	          0.00000000	          0.00000000	          0.00000000	          0.00000000	          0.00000000	          0.00000000	          2.99545969	          0.00000000	          0.00000000	          0.00000000	          0.00000000	
          1.52800000	        -11.60740564	        368.78226608	        -17.43299334	          0.92867792	          0.00000000	          0.05495910	          0.00000000	          0.00000000	          0.00000000	          0.00000000	          0.00000000	          0.00000000	          0.00000000	          3.11445185	          0.00000000	          0.00000000	          0.00000000	          0.00000000	
          1.53200000	        -10.77292509	        372.15349522	        -17.45388735	          0.92951181	          0.00000000	          0.05461238	          0.00000000	          0.00000000	          0.00000000	          0.00000000	          0.00000000	          0.00000000	          0.00000000	          3.22871012	          0.00000000	          0.00000000	          0.00000000	          0.00000000	
          1.53600000	         -9.24907672	        376.05425310	        -17.25272777	          0.93017773	          0.00000000	          0.05431436	          0.00000000	          0.00000000	          0.00000000	          0.00000000	          0.00000000	          0.00000000	          0.00000000	          3.33501050	          0.00000000	          0.00000000	          0.00000000	          0.00000000	
          1.54000000	         -7.07838836	        380.47076229	        -16.83046734	          0.93069391	          0.00000000	          0.05406547	          0.00000000	          0.00000000	          0.00000000	          0.00000000	          0.00000000	          0.00000000	          0.00000000	          3.43529293	          0.00000000	          0.00000000	          0.00000000	          0.00000000	
          1.54400000	         -4.45392584	        385.40367883	        -16.26992663	          0.93110200	          0.00000000	          0.05386109	          0.00000000	          0.00000000	          0.00000000	          0.00000000	          0.00000000	          0.00000000	          0.00000000	          3.53460711	          0.00000000	          0.00000000	          0.00000000	          0.00000000	
          1.54800000	         -1.65633730	        390.85759141	        -15.72683950	          0.93146149	          0.00000000	          0.05369320	          0.00000000	          0.00000000	          0.00000000	          0.00000000	          0.00000000	          0.00000000	          0.00000000	          3.63816912	          0.00000000	          0.00000000	          0.00000000	          0.00000000	
          1.55200000	          1.03069503	        396.82683806	        -15.39644577	          0.93182393	          0.00000000	          0.05355345	          0.00000000	          0.00000000	          0.00000000	          0.00000000	          0.00000000	          0.00000000	          0.00000000	          3.74934282	          0.00000000	          0.00000000	          0.00000000	          0.00000000	
          1.55600000	          3.39823776	        403.29435940	        -15.46123992	          0.93222989	          0.00000000	          0.05343561	          0.00000000	          0.00000000	          0.00000000	          0.00000000	          0.00000000	          0.00000000	          0.00000000	          3.86930418	          0.00000000	          0.00000000	          0.00000000	          0.00000000	
          1.56000000	          5.35978995	        410.24743223	        -16.03944306	          0.93270072	          0.00000000	          0.05333517	          0.00000000	          0.00000000	          0.00000000	          0.00000000	          0.00000000	          0.00000000	          0.00000000	          3.99777200	          0.00000000	          0.00000000	          0.00000000	          0.00000000	
